<?xml version="1.0" encoding="UTF-8"?>
<svg xmlns="http://www.w3.org/2000/svg" xmlns:xlink="http://www.w3.org/1999/xlink" width="36px" height="36px" viewBox="0 0 36 36" version="1.1">
<g id="surface1">
<path style=" stroke:none;fill-rule:nonzero;fill:rgb(100%,100%,100%);fill-opacity:1;" d="M 8.324219 6.1875 C 4.5 7.761719 1.800781 12.9375 0.5625 21.601562 L -0.226562 26.886719 L 4.273438 29.136719 C 7.425781 30.710938 9.113281 31.050781 9.675781 30.261719 C 10.011719 29.585938 9.675781 28.574219 8.886719 28.011719 C 6.1875 26.4375 8.324219 25.988281 13.273438 27.335938 C 16.761719 28.238281 19.238281 28.238281 22.726562 27.335938 C 27.675781 25.988281 29.8125 26.4375 27.113281 28.011719 C 26.324219 28.574219 25.988281 29.585938 26.324219 30.261719 C 26.886719 31.050781 28.574219 30.710938 31.726562 29.136719 L 36.226562 26.886719 L 35.4375 21.601562 C 34.199219 13.050781 31.164062 7.199219 27.113281 5.851562 C 24.976562 5.0625 23.398438 5.0625 23.0625 5.738281 C 22.164062 7.085938 14.289062 7.085938 12.9375 5.738281 C 12.261719 5.0625 10.460938 5.175781 8.324219 6.1875 Z M 15.1875 18.113281 C 16.199219 21.039062 13.5 23.960938 10.914062 22.949219 C 9 22.273438 8.324219 18 9.789062 16.539062 C 11.363281 14.960938 14.511719 15.863281 15.1875 18.113281 Z M 27 17.886719 C 27.789062 19.574219 27.675781 20.476562 26.324219 21.824219 C 25.425781 22.835938 24.1875 23.625 23.738281 23.625 C 21.824219 23.625 20.136719 20.25 20.8125 18 C 21.710938 15.1875 25.425781 15.074219 27 17.886719 Z M 27 17.886719 "/>
</g>
</svg>
