<?xml version="1.0" encoding="UTF-8"?>
<svg xmlns="http://www.w3.org/2000/svg" xmlns:xlink="http://www.w3.org/1999/xlink" width="24px" height="24px" viewBox="0 0 24 24" version="1.1">
<g id="surface1">
<path style=" stroke:none;fill-rule:nonzero;fill:rgb(0%,0%,0%);fill-opacity:1;" d="M 5.550781 4.125 C 3 5.175781 1.199219 8.625 0.375 14.398438 L -0.148438 17.925781 L 2.851562 19.425781 C 4.949219 20.476562 6.074219 20.699219 6.449219 20.175781 C 6.675781 19.726562 6.449219 19.050781 5.925781 18.675781 C 4.125 17.625 5.550781 17.324219 8.851562 18.226562 C 11.175781 18.824219 12.824219 18.824219 15.148438 18.226562 C 18.449219 17.324219 19.875 17.625 18.074219 18.675781 C 17.550781 19.050781 17.324219 19.726562 17.550781 20.175781 C 17.925781 20.699219 19.050781 20.476562 21.148438 19.425781 L 24.148438 17.925781 L 23.625 14.398438 C 22.800781 8.699219 20.773438 4.800781 18.074219 3.898438 C 16.648438 3.375 15.601562 3.375 15.375 3.824219 C 14.773438 4.726562 9.523438 4.726562 8.625 3.824219 C 8.175781 3.375 6.976562 3.449219 5.550781 4.125 Z M 10.125 12.074219 C 10.800781 14.023438 9 15.976562 7.273438 15.300781 C 6 14.851562 5.550781 12 6.523438 11.023438 C 7.574219 9.976562 9.675781 10.574219 10.125 12.074219 Z M 18 11.925781 C 18.523438 13.050781 18.449219 13.648438 17.550781 14.550781 C 16.949219 15.226562 16.125 15.75 15.824219 15.75 C 14.550781 15.75 13.425781 13.5 13.875 12 C 14.476562 10.125 16.949219 10.050781 18 11.925781 Z M 18 11.925781 "/>
</g>
</svg>
