<?xml version="1.0" encoding="UTF-8"?>
<svg xmlns="http://www.w3.org/2000/svg" xmlns:xlink="http://www.w3.org/1999/xlink" width="30px" height="30px" viewBox="0 0 30 30" version="1.1">
<g id="surface1">
<path style=" stroke:none;fill-rule:nonzero;fill:rgb(100%,100%,100%);fill-opacity:1;" d="M 6.9375 5.15625 C 3.75 6.46875 1.5 10.78125 0.46875 18 L -0.1875 22.40625 L 3.5625 24.28125 C 6.1875 25.59375 7.59375 25.875 8.0625 25.21875 C 8.34375 24.65625 8.0625 23.8125 7.40625 23.34375 C 5.15625 22.03125 6.9375 21.65625 11.0625 22.78125 C 13.96875 23.53125 16.03125 23.53125 18.9375 22.78125 C 23.0625 21.65625 24.84375 22.03125 22.59375 23.34375 C 21.9375 23.8125 21.65625 24.65625 21.9375 25.21875 C 22.40625 25.875 23.8125 25.59375 26.4375 24.28125 L 30.1875 22.40625 L 29.53125 18 C 28.5 10.875 25.96875 6 22.59375 4.875 C 20.8125 4.21875 19.5 4.21875 19.21875 4.78125 C 18.46875 5.90625 11.90625 5.90625 10.78125 4.78125 C 10.21875 4.21875 8.71875 4.3125 6.9375 5.15625 Z M 12.65625 15.09375 C 13.5 17.53125 11.25 19.96875 9.09375 19.125 C 7.5 18.5625 6.9375 15 8.15625 13.78125 C 9.46875 12.46875 12.09375 13.21875 12.65625 15.09375 Z M 22.5 14.90625 C 23.15625 16.3125 23.0625 17.0625 21.9375 18.1875 C 21.1875 19.03125 20.15625 19.6875 19.78125 19.6875 C 18.1875 19.6875 16.78125 16.875 17.34375 15 C 18.09375 12.65625 21.1875 12.5625 22.5 14.90625 Z M 22.5 14.90625 "/>
</g>
</svg>
