<?xml version="1.0" standalone="no"?><!DOCTYPE svg PUBLIC "-//W3C//DTD SVG 20010904//EN" "http://www.w3.org/TR/2001/REC-SVG-20010904/DTD/svg10.dtd"><svg xmlns="http://www.w3.org/2000/svg" version="1.0" width="32.000000pt" height="32.000000pt" viewBox="0 0 32.000000 32.000000" preserveAspectRatio="xMidYMid meet">

<g transform="translate(0.000000,32.000000) scale(0.100000,-0.100000)" fill="#ffffff" stroke="none">
<path d="M74 265 c-34 -14 -58 -60 -69 -137 l-7 -47 40 -20 c28 -14 43 -17 48 -10 3 6 0 15 -7 20 -24 14 -5 18 39 6 31 -8 53 -8 84 0 44 12 63 8 39 -6 -7 -5 -10 -14 -7 -20 5 -7 20 -4 48 10 l40 20 -7 47 c-11 76 -38 128 -74 140 -19 7 -33 7 -36 1 -8 -12 -78 -12 -90 0 -6 6 -22 5 -41 -4z m61 -106 c9 -26 -15 -52 -38 -43 -17 6 -23 44 -10 57 14 14 42 6 48 -14z m105 2 c7 -15 6 -23 -6 -35 -8 -9 -19 -16 -23 -16 -17 0 -32 30 -26 50 8 25 41 26 55 1z"/>
</g>
</svg>